<?xml version="1.0" encoding="UTF-8"?>
<svg xmlns="http://www.w3.org/2000/svg" xmlns:xlink="http://www.w3.org/1999/xlink" viewBox="0 0 500 500" width="500px" height="500px">
<g id="surface95536141">
<path style=" stroke:none;fill-rule:nonzero;fill:rgb(90.196079%,1.960784%,25.098041%);fill-opacity:1;" d="M 408.429688 221.339844 C 415.109375 222.488281 420 228.289062 420 235.070312 L 420 264.921875 C 420 271.699219 415.109375 277.5 408.429688 278.648438 L 380.660156 283.429688 C 377.449219 296.011719 372.5 307.859375 366.039062 318.738281 L 382.300781 341.75 C 386.210938 347.289062 385.570312 354.851562 380.769531 359.640625 L 359.660156 380.75 C 354.28125 385.921875 346.890625 385.960938 341.769531 382.28125 L 318.761719 366.019531 C 307.878906 372.480469 296.03125 377.429688 283.449219 380.640625 L 278.671875 408.410156 C 277.511719 415.109375 271.710938 420 264.921875 420 L 235.070312 420 C 228.289062 420 222.488281 415.109375 221.339844 408.429688 L 216.558594 380.660156 C 203.980469 377.449219 192.128906 372.5 181.25 366.039062 L 158.238281 382.300781 C 152.898438 386.109375 145.410156 385.730469 140.351562 380.769531 L 119.238281 359.660156 C 114.441406 354.859375 113.800781 347.308594 117.710938 341.769531 L 133.96875 318.761719 C 127.511719 307.878906 122.558594 296.03125 119.351562 283.449219 L 91.578125 278.671875 C 84.890625 277.511719 80 271.710938 80 264.921875 L 80 235.070312 C 80 228.289062 84.890625 222.488281 91.570312 221.339844 L 119.339844 216.558594 C 122.550781 203.980469 127.5 192.128906 133.960938 181.25 L 117.699219 158.238281 C 113.789062 152.699219 114.429688 145.140625 119.230469 140.351562 L 140.339844 119.238281 C 146.300781 113.449219 154.03125 114.679688 158.230469 117.710938 L 181.238281 133.96875 C 192.121094 127.511719 203.96875 122.558594 216.550781 119.351562 L 221.328125 91.578125 C 222.488281 84.890625 228.289062 80 235.078125 80 L 264.929688 80 C 271.710938 80 277.511719 84.890625 278.660156 91.570312 L 283.441406 119.339844 C 296.019531 122.550781 307.871094 127.5 318.75 133.960938 L 341.761719 117.699219 C 347.929688 113.558594 355.269531 114.878906 359.648438 119.230469 L 380.761719 140.339844 C 385.558594 145.140625 386.199219 152.691406 382.289062 158.230469 L 366.03125 181.238281 C 372.488281 192.121094 377.441406 203.96875 380.648438 216.550781 Z M 250 319.550781 C 288.410156 319.550781 319.550781 288.410156 319.550781 250 C 319.550781 211.589844 288.410156 180.449219 250 180.449219 C 211.589844 180.449219 180.449219 211.589844 180.449219 250 C 180.449219 288.410156 211.589844 319.550781 250 319.550781 Z M 250 319.550781 "/>
</g>
</svg>
